<svg xmlns="http://www.w3.org/2000/svg" viewBox="0 0 24 24" width="24" height="24" color="#000000" fill="none">
    <defs />
    <path fill="currentColor" d="M8.257,1.249 L18,1.249 C18.414,1.249 18.75,1.585 18.75,1.999 C18.75,2.381 18.465,2.696 18.096,2.743 L18.649,3.407 L18.717,3.488 C19.11,3.959 19.421,4.331 19.586,4.787 C19.751,5.244 19.751,5.729 19.75,6.342 L19.75,6.342 L19.75,6.448 L19.75,17.551 L19.75,17.657 L19.75,17.657 C19.751,18.27 19.751,18.755 19.586,19.211 C19.421,19.668 19.11,20.04 18.717,20.511 L18.649,20.592 L17.376,22.12 L17.346,22.157 C17.238,22.288 17.057,22.509 16.796,22.631 C16.535,22.754 16.25,22.751 16.08,22.75 L16.032,22.749 L7.968,22.749 L7.921,22.75 C7.75,22.751 7.465,22.754 7.204,22.631 C6.943,22.509 6.762,22.288 6.655,22.157 L6.624,22.12 L5.351,20.592 L5.283,20.511 C4.89,20.04 4.58,19.668 4.414,19.211 C4.249,18.755 4.25,18.27 4.25,17.657 L4.25,17.551 L4.25,6.448 L4.25,6.342 C4.25,5.729 4.249,5.244 4.414,4.787 C4.58,4.331 4.89,3.959 5.283,3.488 L5.351,3.407 L5.904,2.743 C5.535,2.696 5.25,2.381 5.25,1.999 C5.25,1.585 5.586,1.249 6,1.249 L8.257,1.249 Z M5.75,6.448 L5.75,17.551 C5.75,17.867 5.752,18.087 5.758,18.249 L18.242,18.249 C18.248,18.087 18.25,17.867 18.25,17.551 L18.25,6.448 C18.25,6.132 18.248,5.911 18.242,5.749 L5.758,5.749 C5.752,5.911 5.75,6.132 5.75,6.448 Z M12,8.749 C13.795,8.749 15.25,10.204 15.25,11.999 C15.25,13.794 13.795,15.249 12,15.249 C10.205,15.249 8.75,13.794 8.75,11.999 C8.75,10.204 10.205,8.749 12,8.749 Z M6.601,19.749 L7.776,21.159 C7.807,21.196 7.831,21.225 7.852,21.249 C7.884,21.249 7.921,21.249 7.968,21.249 L16.032,21.249 C16.079,21.249 16.117,21.249 16.149,21.249 C16.17,21.225 16.194,21.196 16.224,21.159 L17.399,19.749 Z M7.864,2.772 L7.861,2.774 L7.857,2.776 L7.853,2.78 C7.843,2.787 7.823,2.803 7.791,2.836 C7.72,2.908 7.632,3.013 7.477,3.199 L6.602,4.249 L17.399,4.249 L16.524,3.199 C16.368,3.013 16.281,2.908 16.209,2.836 C16.177,2.803 16.158,2.787 16.147,2.78 L16.143,2.776 L16.139,2.774 L16.138,2.773 L16.136,2.772 C16.136,2.772 16.132,2.771 16.126,2.77 C16.114,2.767 16.089,2.762 16.044,2.759 C15.942,2.75 15.806,2.749 15.563,2.749 L8.437,2.749 C8.194,2.749 8.058,2.75 7.956,2.759 C7.911,2.762 7.886,2.767 7.874,2.77 C7.868,2.771 7.864,2.772 7.864,2.772 Z M10.25,11.999 C10.25,12.965 11.033,13.749 12,13.749 C12.967,13.749 13.75,12.965 13.75,11.999 C13.75,11.033 12.967,10.249 12,10.249 C11.033,10.249 10.25,11.033 10.25,11.999 Z" />
</svg>